<?xml version="1.0" encoding="UTF-8"?>
<svg width="22px" height="22px" viewBox="0 0 22 22" version="1.1" xmlns="http://www.w3.org/2000/svg" xmlns:xlink="http://www.w3.org/1999/xlink">
    <!-- Generator: Sketch 62 (91390) - https://sketch.com -->
    <title>Path</title>
    <desc>Created with Sketch.</desc>
    <g id="search" stroke="none" stroke-width="1" fill="none" fill-rule="evenodd">
        <path d="M21.8874464,7.88392537 C21.7458759,7.54201463 21.4122442,7.31908568 21.0421832,7.31913005 L14.3576998,7.31913005 L11.8364912,0.593905878 C11.702706,0.236695528 11.3613052,0 10.9798636,0 C10.5984219,0 10.2570211,0.236695528 10.1232359,0.593905878 L7.59988305,7.31913005 L0.914970768,7.31913005 C0.544874721,7.31904626 0.211194906,7.54198136 0.069610621,7.88392431 C-0.0719736645,8.22586725 0.00643906278,8.61943265 0.268265115,8.88100139 L5.39130605,14.0040423 L3.68834309,20.8201827 C3.59658163,21.1915545 3.74548747,21.5808189 4.06167615,21.796137 C4.37786484,22.0114551 4.79461811,22.007393 5.10654971,21.7859527 L10.9787914,17.5922295 L16.8510331,21.7859527 C17.1629647,22.007393 17.579718,22.0114551 17.8959067,21.796137 C18.2120954,21.5808189 18.3610012,21.1915545 18.2692398,20.8201827 L16.5662768,14.0040423 L21.6893177,8.88100139 C21.9509612,8.61931417 22.0291634,8.22576421 21.8874464,7.88392537 Z" id="Path" fill="#d1d1d1" fill-rule="nonzero"></path>
    </g>
</svg>